<mxfile host="app.diagrams.net" modified="2023-09-22T00:24:04.078Z" agent="Mozilla/5.0 (Windows NT 10.0; Win64; x64) AppleWebKit/537.36 (KHTML, like Gecko) Chrome/117.0.0.0 Safari/537.36" etag="UTUlOLebABbt7VMJBmR9" version="21.8.0" type="google">
  <diagram name="Página-1" id="scH6Qrl0Yc_vvWnmQadE">
    <mxGraphModel dx="2146" dy="811" grid="1" gridSize="10" guides="1" tooltips="1" connect="1" arrows="1" fold="1" page="1" pageScale="1" pageWidth="827" pageHeight="1169" math="0" shadow="0">
      <root>
        <mxCell id="0" />
        <mxCell id="1" parent="0" />
        <mxCell id="6gIOsRb4ZLLcOPJRMUm--12" value="Processo de Execução de Demanda" style="swimlane;html=1;childLayout=stackLayout;resizeParent=1;resizeParentMax=0;horizontal=1;startSize=20;horizontalStack=0;whiteSpace=wrap;" vertex="1" parent="1">
          <mxGeometry x="170" y="50" width="900" height="1020" as="geometry" />
        </mxCell>
        <mxCell id="6gIOsRb4ZLLcOPJRMUm--13" value="Análise de requisitos" style="swimlane;html=1;startSize=20;horizontal=0;" vertex="1" parent="6gIOsRb4ZLLcOPJRMUm--12">
          <mxGeometry y="20" width="900" height="610" as="geometry" />
        </mxCell>
        <mxCell id="6gIOsRb4ZLLcOPJRMUm--24" style="edgeStyle=orthogonalEdgeStyle;rounded=0;orthogonalLoop=1;jettySize=auto;html=1;" edge="1" parent="6gIOsRb4ZLLcOPJRMUm--13" source="6gIOsRb4ZLLcOPJRMUm--22" target="6gIOsRb4ZLLcOPJRMUm--23">
          <mxGeometry relative="1" as="geometry" />
        </mxCell>
        <mxCell id="6gIOsRb4ZLLcOPJRMUm--22" value="" style="ellipse;whiteSpace=wrap;html=1;aspect=fixed;" vertex="1" parent="6gIOsRb4ZLLcOPJRMUm--13">
          <mxGeometry x="30" y="122.5" width="30" height="30" as="geometry" />
        </mxCell>
        <mxCell id="6gIOsRb4ZLLcOPJRMUm--32" style="edgeStyle=orthogonalEdgeStyle;rounded=0;orthogonalLoop=1;jettySize=auto;html=1;entryX=0;entryY=0.5;entryDx=0;entryDy=0;" edge="1" parent="6gIOsRb4ZLLcOPJRMUm--13" source="6gIOsRb4ZLLcOPJRMUm--23" target="6gIOsRb4ZLLcOPJRMUm--31">
          <mxGeometry relative="1" as="geometry">
            <mxPoint x="270" y="40" as="targetPoint" />
          </mxGeometry>
        </mxCell>
        <mxCell id="6gIOsRb4ZLLcOPJRMUm--23" value="Receber demanda" style="rounded=1;whiteSpace=wrap;html=1;" vertex="1" parent="6gIOsRb4ZLLcOPJRMUm--13">
          <mxGeometry x="120" y="107.5" width="100" height="60" as="geometry" />
        </mxCell>
        <mxCell id="6gIOsRb4ZLLcOPJRMUm--37" style="edgeStyle=orthogonalEdgeStyle;rounded=0;orthogonalLoop=1;jettySize=auto;html=1;entryX=0;entryY=0.5;entryDx=0;entryDy=0;" edge="1" parent="6gIOsRb4ZLLcOPJRMUm--13" source="6gIOsRb4ZLLcOPJRMUm--31" target="6gIOsRb4ZLLcOPJRMUm--36">
          <mxGeometry relative="1" as="geometry">
            <mxPoint x="470" y="40" as="targetPoint" />
          </mxGeometry>
        </mxCell>
        <mxCell id="6gIOsRb4ZLLcOPJRMUm--31" value="Analisar &lt;br&gt;demanda" style="rounded=1;whiteSpace=wrap;html=1;" vertex="1" parent="6gIOsRb4ZLLcOPJRMUm--13">
          <mxGeometry x="320" y="106.25" width="100" height="62.5" as="geometry" />
        </mxCell>
        <mxCell id="6gIOsRb4ZLLcOPJRMUm--40" style="edgeStyle=orthogonalEdgeStyle;rounded=0;orthogonalLoop=1;jettySize=auto;html=1;" edge="1" parent="6gIOsRb4ZLLcOPJRMUm--13" source="6gIOsRb4ZLLcOPJRMUm--36">
          <mxGeometry relative="1" as="geometry">
            <mxPoint x="690" y="400" as="targetPoint" />
          </mxGeometry>
        </mxCell>
        <mxCell id="6gIOsRb4ZLLcOPJRMUm--42" value="Sim" style="edgeLabel;html=1;align=center;verticalAlign=middle;resizable=0;points=[];" vertex="1" connectable="0" parent="6gIOsRb4ZLLcOPJRMUm--40">
          <mxGeometry x="-0.7186" y="-1" relative="1" as="geometry">
            <mxPoint x="5" y="-11" as="offset" />
          </mxGeometry>
        </mxCell>
        <mxCell id="6gIOsRb4ZLLcOPJRMUm--86" style="edgeStyle=orthogonalEdgeStyle;rounded=0;orthogonalLoop=1;jettySize=auto;html=1;exitX=0.5;exitY=1;exitDx=0;exitDy=0;entryX=1;entryY=0.5;entryDx=0;entryDy=0;" edge="1" parent="6gIOsRb4ZLLcOPJRMUm--13" source="6gIOsRb4ZLLcOPJRMUm--36" target="6gIOsRb4ZLLcOPJRMUm--56">
          <mxGeometry relative="1" as="geometry" />
        </mxCell>
        <mxCell id="6gIOsRb4ZLLcOPJRMUm--87" value="Não" style="edgeLabel;html=1;align=center;verticalAlign=middle;resizable=0;points=[];" vertex="1" connectable="0" parent="6gIOsRb4ZLLcOPJRMUm--86">
          <mxGeometry x="-0.3255" y="2" relative="1" as="geometry">
            <mxPoint as="offset" />
          </mxGeometry>
        </mxCell>
        <mxCell id="6gIOsRb4ZLLcOPJRMUm--36" value="É banco?" style="rhombus;whiteSpace=wrap;html=1;" vertex="1" parent="6gIOsRb4ZLLcOPJRMUm--13">
          <mxGeometry x="520" y="90" width="90" height="95" as="geometry" />
        </mxCell>
        <mxCell id="6gIOsRb4ZLLcOPJRMUm--90" style="edgeStyle=orthogonalEdgeStyle;rounded=0;orthogonalLoop=1;jettySize=auto;html=1;" edge="1" parent="6gIOsRb4ZLLcOPJRMUm--13" source="6gIOsRb4ZLLcOPJRMUm--46">
          <mxGeometry relative="1" as="geometry">
            <mxPoint x="400" y="100" as="targetPoint" />
          </mxGeometry>
        </mxCell>
        <mxCell id="6gIOsRb4ZLLcOPJRMUm--46" value="" style="shape=note;whiteSpace=wrap;html=1;backgroundOutline=1;darkOpacity=0.05;size=19;" vertex="1" parent="6gIOsRb4ZLLcOPJRMUm--13">
          <mxGeometry x="330" y="25" width="40" height="50" as="geometry" />
        </mxCell>
        <mxCell id="6gIOsRb4ZLLcOPJRMUm--48" value="" style="shape=note;whiteSpace=wrap;html=1;backgroundOutline=1;darkOpacity=0.05;size=19;" vertex="1" parent="6gIOsRb4ZLLcOPJRMUm--13">
          <mxGeometry x="330" y="230" width="40" height="50" as="geometry" />
        </mxCell>
        <mxCell id="6gIOsRb4ZLLcOPJRMUm--14" value="Desenvolvimento" style="swimlane;html=1;startSize=20;horizontal=0;" vertex="1" parent="6gIOsRb4ZLLcOPJRMUm--13">
          <mxGeometry y="320" width="900" height="290" as="geometry" />
        </mxCell>
        <mxCell id="6gIOsRb4ZLLcOPJRMUm--81" style="edgeStyle=orthogonalEdgeStyle;rounded=0;orthogonalLoop=1;jettySize=auto;html=1;" edge="1" parent="6gIOsRb4ZLLcOPJRMUm--14" source="6gIOsRb4ZLLcOPJRMUm--38">
          <mxGeometry relative="1" as="geometry">
            <mxPoint x="790" y="370" as="targetPoint" />
          </mxGeometry>
        </mxCell>
        <mxCell id="6gIOsRb4ZLLcOPJRMUm--38" value="Executar tarefa no banco" style="rounded=1;whiteSpace=wrap;html=1;" vertex="1" parent="6gIOsRb4ZLLcOPJRMUm--14">
          <mxGeometry x="610" y="90" width="160" height="80" as="geometry" />
        </mxCell>
        <mxCell id="6gIOsRb4ZLLcOPJRMUm--56" value="Estimar tarefas" style="rounded=1;whiteSpace=wrap;html=1;" vertex="1" parent="6gIOsRb4ZLLcOPJRMUm--14">
          <mxGeometry x="320" y="30" width="160" height="80" as="geometry" />
        </mxCell>
        <mxCell id="6gIOsRb4ZLLcOPJRMUm--57" value="Desenvolver tarefas" style="rounded=1;whiteSpace=wrap;html=1;" vertex="1" parent="6gIOsRb4ZLLcOPJRMUm--14">
          <mxGeometry x="320" y="180" width="160" height="80" as="geometry" />
        </mxCell>
        <mxCell id="6gIOsRb4ZLLcOPJRMUm--67" style="edgeStyle=orthogonalEdgeStyle;rounded=0;orthogonalLoop=1;jettySize=auto;html=1;entryX=0.5;entryY=0;entryDx=0;entryDy=0;" edge="1" parent="6gIOsRb4ZLLcOPJRMUm--14" source="6gIOsRb4ZLLcOPJRMUm--56" target="6gIOsRb4ZLLcOPJRMUm--57">
          <mxGeometry relative="1" as="geometry" />
        </mxCell>
        <mxCell id="6gIOsRb4ZLLcOPJRMUm--50" value="Email&lt;br&gt;" style="text;html=1;align=center;verticalAlign=middle;resizable=0;points=[];autosize=1;strokeColor=none;fillColor=none;" vertex="1" parent="6gIOsRb4ZLLcOPJRMUm--13">
          <mxGeometry x="120" y="75" width="50" height="30" as="geometry" />
        </mxCell>
        <mxCell id="6gIOsRb4ZLLcOPJRMUm--54" value="Demanda" style="text;html=1;align=center;verticalAlign=middle;resizable=0;points=[];autosize=1;strokeColor=none;fillColor=none;" vertex="1" parent="6gIOsRb4ZLLcOPJRMUm--13">
          <mxGeometry x="310" y="75" width="80" height="30" as="geometry" />
        </mxCell>
        <mxCell id="6gIOsRb4ZLLcOPJRMUm--55" value="Doc Req" style="text;html=1;align=center;verticalAlign=middle;resizable=0;points=[];autosize=1;strokeColor=none;fillColor=none;" vertex="1" parent="6gIOsRb4ZLLcOPJRMUm--13">
          <mxGeometry x="315" y="290" width="70" height="30" as="geometry" />
        </mxCell>
        <mxCell id="6gIOsRb4ZLLcOPJRMUm--60" style="edgeStyle=orthogonalEdgeStyle;rounded=0;orthogonalLoop=1;jettySize=auto;html=1;entryX=0;entryY=0;entryDx=21;entryDy=0;entryPerimeter=0;" edge="1" parent="6gIOsRb4ZLLcOPJRMUm--13" source="6gIOsRb4ZLLcOPJRMUm--31" target="6gIOsRb4ZLLcOPJRMUm--48">
          <mxGeometry relative="1" as="geometry" />
        </mxCell>
        <mxCell id="6gIOsRb4ZLLcOPJRMUm--92" style="edgeStyle=orthogonalEdgeStyle;rounded=0;orthogonalLoop=1;jettySize=auto;html=1;" edge="1" parent="6gIOsRb4ZLLcOPJRMUm--13" source="6gIOsRb4ZLLcOPJRMUm--91">
          <mxGeometry relative="1" as="geometry">
            <mxPoint x="190" y="100" as="targetPoint" />
          </mxGeometry>
        </mxCell>
        <mxCell id="6gIOsRb4ZLLcOPJRMUm--91" value="" style="shape=note;whiteSpace=wrap;html=1;backgroundOutline=1;darkOpacity=0.05;size=19;" vertex="1" parent="6gIOsRb4ZLLcOPJRMUm--13">
          <mxGeometry x="120" y="20" width="40" height="50" as="geometry" />
        </mxCell>
        <mxCell id="6gIOsRb4ZLLcOPJRMUm--15" value="Testes" style="swimlane;html=1;startSize=20;horizontal=0;" vertex="1" parent="6gIOsRb4ZLLcOPJRMUm--12">
          <mxGeometry y="630" width="900" height="390" as="geometry" />
        </mxCell>
        <mxCell id="6gIOsRb4ZLLcOPJRMUm--80" value="" style="ellipse;whiteSpace=wrap;html=1;aspect=fixed;" vertex="1" parent="6gIOsRb4ZLLcOPJRMUm--15">
          <mxGeometry x="750" y="86.25" width="70" height="70" as="geometry" />
        </mxCell>
        <mxCell id="6gIOsRb4ZLLcOPJRMUm--63" style="edgeStyle=orthogonalEdgeStyle;rounded=0;orthogonalLoop=1;jettySize=auto;html=1;" edge="1" parent="6gIOsRb4ZLLcOPJRMUm--15" source="6gIOsRb4ZLLcOPJRMUm--58">
          <mxGeometry relative="1" as="geometry">
            <mxPoint x="550" y="130" as="targetPoint" />
          </mxGeometry>
        </mxCell>
        <mxCell id="6gIOsRb4ZLLcOPJRMUm--58" value="Testar tarefas" style="rounded=1;whiteSpace=wrap;html=1;" vertex="1" parent="6gIOsRb4ZLLcOPJRMUm--15">
          <mxGeometry x="320" y="90" width="160" height="80" as="geometry" />
        </mxCell>
        <mxCell id="6gIOsRb4ZLLcOPJRMUm--62" value="Teste ok?" style="rhombus;whiteSpace=wrap;html=1;" vertex="1" parent="6gIOsRb4ZLLcOPJRMUm--15">
          <mxGeometry x="558" y="86.25" width="80" height="87.5" as="geometry" />
        </mxCell>
        <mxCell id="6gIOsRb4ZLLcOPJRMUm--82" style="edgeStyle=orthogonalEdgeStyle;rounded=0;orthogonalLoop=1;jettySize=auto;html=1;" edge="1" parent="6gIOsRb4ZLLcOPJRMUm--15" source="6gIOsRb4ZLLcOPJRMUm--64">
          <mxGeometry relative="1" as="geometry">
            <mxPoint x="790" y="160" as="targetPoint" />
          </mxGeometry>
        </mxCell>
        <mxCell id="6gIOsRb4ZLLcOPJRMUm--64" value="Finalizar tarefas" style="rounded=1;whiteSpace=wrap;html=1;" vertex="1" parent="6gIOsRb4ZLLcOPJRMUm--15">
          <mxGeometry x="530" y="300" width="140" height="70" as="geometry" />
        </mxCell>
        <mxCell id="6gIOsRb4ZLLcOPJRMUm--65" style="edgeStyle=orthogonalEdgeStyle;rounded=0;orthogonalLoop=1;jettySize=auto;html=1;" edge="1" parent="6gIOsRb4ZLLcOPJRMUm--15" source="6gIOsRb4ZLLcOPJRMUm--62">
          <mxGeometry relative="1" as="geometry">
            <mxPoint x="600" y="290" as="targetPoint" />
            <Array as="points">
              <mxPoint x="598" y="246" />
            </Array>
          </mxGeometry>
        </mxCell>
        <mxCell id="6gIOsRb4ZLLcOPJRMUm--68" value="Sim" style="edgeLabel;html=1;align=center;verticalAlign=middle;resizable=0;points=[];" vertex="1" connectable="0" parent="6gIOsRb4ZLLcOPJRMUm--65">
          <mxGeometry x="-0.1591" y="1" relative="1" as="geometry">
            <mxPoint x="-1" y="11" as="offset" />
          </mxGeometry>
        </mxCell>
        <mxCell id="6gIOsRb4ZLLcOPJRMUm--78" value="" style="ellipse;whiteSpace=wrap;html=1;aspect=fixed;" vertex="1" parent="6gIOsRb4ZLLcOPJRMUm--15">
          <mxGeometry x="755" y="91.25" width="60" height="60" as="geometry" />
        </mxCell>
        <mxCell id="6gIOsRb4ZLLcOPJRMUm--66" style="edgeStyle=orthogonalEdgeStyle;rounded=0;orthogonalLoop=1;jettySize=auto;html=1;entryX=0.5;entryY=0;entryDx=0;entryDy=0;" edge="1" parent="6gIOsRb4ZLLcOPJRMUm--12" source="6gIOsRb4ZLLcOPJRMUm--57" target="6gIOsRb4ZLLcOPJRMUm--58">
          <mxGeometry relative="1" as="geometry" />
        </mxCell>
        <mxCell id="6gIOsRb4ZLLcOPJRMUm--76" style="edgeStyle=orthogonalEdgeStyle;rounded=0;orthogonalLoop=1;jettySize=auto;html=1;entryX=1;entryY=0.5;entryDx=0;entryDy=0;" edge="1" parent="6gIOsRb4ZLLcOPJRMUm--12" source="6gIOsRb4ZLLcOPJRMUm--62" target="6gIOsRb4ZLLcOPJRMUm--57">
          <mxGeometry relative="1" as="geometry">
            <Array as="points">
              <mxPoint x="598" y="560" />
            </Array>
          </mxGeometry>
        </mxCell>
        <mxCell id="6gIOsRb4ZLLcOPJRMUm--77" value="Não" style="edgeLabel;html=1;align=center;verticalAlign=middle;resizable=0;points=[];" vertex="1" connectable="0" parent="6gIOsRb4ZLLcOPJRMUm--76">
          <mxGeometry x="-0.6044" relative="1" as="geometry">
            <mxPoint as="offset" />
          </mxGeometry>
        </mxCell>
      </root>
    </mxGraphModel>
  </diagram>
</mxfile>
